<?xml version="1.0"?>
<svg width="127" height="39" xmlns="http://www.w3.org/2000/svg" xmlns:svg="http://www.w3.org/2000/svg">
 <g class="layer">
  <title>Layer 1</title>
  <path class="ccustom" d="m19.5,2c-2.3,0 -4.57,0.45 -6.7,1.33c-2.12,0.88 -4.05,2.17 -5.67,3.8c-1.63,1.62 -2.92,3.55 -3.8,5.67c-0.88,2.13 -1.33,4.4 -1.33,6.7c0,2.3 0.45,4.57 1.33,6.7c0.88,2.12 2.17,4.05 3.8,5.67c1.62,1.63 3.55,2.92 5.67,3.8c2.13,0.88 4.4,1.33 6.7,1.33l0,-8.75c-1.15,0 -2.29,-0.23 -3.35,-0.67c-1.06,-0.44 -2.02,-1.08 -2.84,-1.89c-0.81,-0.82 -1.45,-1.78 -1.89,-2.84c-0.44,-1.06 -0.67,-2.2 -0.67,-3.35c0,-1.15 0.23,-2.29 0.67,-3.35c0.44,-1.06 1.08,-2.02 1.89,-2.84c0.82,-0.81 1.78,-1.45 2.84,-1.89c1.06,-0.44 2.2,-0.67 3.35,-0.67l0,-8.75z" fill="#0F52FF" id="svg_1"/>
  <path class="ccustom" d="m19.5,25.33c3.22,0 5.83,-2.61 5.83,-5.83c0,-3.22 -2.61,-5.83 -5.83,-5.83c-3.22,0 -5.83,2.61 -5.83,5.83c0,3.22 2.61,5.83 5.83,5.83z" fill="#0F52FF" id="svg_2"/>
  <path class="ccompli1" d="m2,19.5c0,2.3 0.45,4.57 1.33,6.7c0.88,2.12 2.17,4.05 3.8,5.67c1.62,1.63 3.55,2.92 5.67,3.8c2.13,0.88 4.4,1.33 6.7,1.33c2.3,0 4.57,-0.45 6.7,-1.33c2.12,-0.88 4.05,-2.17 5.67,-3.8c1.63,-1.62 2.92,-3.55 3.8,-5.67c0.88,-2.13 1.33,-4.4 1.33,-6.7l-8.75,0c0,1.15 -0.23,2.29 -0.67,3.35c-0.44,1.06 -1.08,2.02 -1.89,2.84c-0.82,0.81 -1.78,1.45 -2.84,1.89c-1.06,0.44 -2.2,0.67 -3.35,0.67c-1.15,0 -2.29,-0.23 -3.35,-0.67c-1.06,-0.44 -2.02,-1.08 -2.84,-1.89c-0.81,-0.82 -1.45,-1.78 -1.89,-2.84c-0.44,-1.06 -0.67,-2.2 -0.67,-3.35l-8.75,0z" fill="#66c1ff" id="svg_3" stroke-width="0"/>
  <path class="ccompli1" d="m25.33,19.5c0,-1.55 -0.61,-3.03 -1.71,-4.12c-1.09,-1.1 -2.57,-1.71 -4.12,-1.71c-1.55,0 -3.03,0.61 -4.12,1.71c-1.1,1.09 -1.71,2.57 -1.71,4.12l5.83,0l5.83,0z" fill="#66c1ff" id="svg_4" stroke-width="0"/>
  <text fill="#0F52FF" font-family="Monospace" font-size="16" font-weight="bold" id="svg_6" stroke-width="0" text-anchor="middle" transform="matrix(1 0 0 1 0 0)" x="51.25" xml:space="preserve" y="25.13">Doc</text>
  <text fill="#66c1ff" font-family="Monospace" font-size="16" font-weight="bold" id="svg_5" stroke-width="0" style="cursor: move;" text-anchor="middle" x="95.25" xml:space="preserve" y="25.38">Pointer</text>
 </g>
</svg>